<svg width="328.36805044320914" height="304.91318969726564" viewBox="0 0 350 325" class="looka-1j8o68f"><defs id="SvgjsDefs3075"></defs><g id="SvgjsG3076" featurekey="rootContainer" transform="matrix(1,0,0,1,0,19)" fill="#f9a392"><rect y="0" height="1" width="1" opacity="0"></rect><rect y="301" width="350" height="5"></rect></g><g id="SvgjsG3077" featurekey="symbolFeature-0" transform="matrix(1.7499998664856058,0,0,1.7499998664856058,88.0017498730278,17.077749322681477)" fill="#050505"><g xmlns="http://www.w3.org/2000/svg"><path d="M96.315,75.476c0,0-15.449,0-33.725,0v7.853v0.045c8.006,0,13.516,0,13.516,0c5.889,0,8.444-0.046,11.536-0.045h9.017   c2.806,0,3.116-2.388,3.116-2.388v-2.01C99.775,78.931,99.974,75.476,96.315,75.476z"></path><path d="M91.642,73.454c4.606,0,8.357-3.732,8.357-8.328c0-4.615-3.751-8.336-8.357-8.336c-4.609,0-8.351,3.721-8.351,8.336   C83.291,69.719,87.032,73.454,91.642,73.454z"></path><path d="M74.025,73.946c4.388,0,7.914-3.543,7.914-7.898c0-4.342-3.497-6.856-7.853-6.889l-11.496,1.223v13.564H74.025   L74.025,73.946z"></path><path d="M36.505,19.027c5.123,0,9.268-4.143,9.268-9.251c0-5.109-4.146-9.249-9.268-9.249c-5.118,0-9.27,4.14-9.27,9.249   C27.236,14.885,31.387,19.027,36.505,19.027z"></path><path d="M27.043,48.966c-0.023-0.04-0.062-0.067-0.081-0.116l-4.201-9.904l-0.007,19.216h12.553l2.742-2.724l-7.436-2.758   C28.847,52.024,27.597,50.625,27.043,48.966z"></path><path d="M29.706,48.096c0.403,0.912,1.157,1.644,2.104,1.984l14.326,5.274c1.835,0.802,3.978-0.028,4.779-1.862   c0.806-1.839-0.027-3.979-1.867-4.784l-13.216-4.961l-4.084-9.741l2.66-0.983l3.474,8.342l10.06,3.704V34.874l5.321,3.158   l2.646,13.315c0.658,1.897,2.721,2.9,4.62,2.244c1.891-0.654,2.891-2.723,2.238-4.617L59.79,36.148   c-0.195-0.715-0.612-1.343-1.171-1.814c-1.53-1.68-9.249-10.141-9.799-10.717c-0.807-0.802-2.653-2.129-6.134-2.129H30.184   c-7.104,0-8.472,7.084-7.018,10.748L29.706,48.096z"></path><path d="M60.521,59.684H4.096c-2.051,0-4.097,2.052-4.097,4.584c0,0.588,0.001,1.661,0.001,1.661l-0.001,17.399   c0,0,3.664,0,4.855,0h55.667V59.684z"></path></g></g><g id="SvgjsG3078" featurekey="nameFeature-0" transform="matrix(2.720980300722321,0,0,2.720980300722321,-5.154079175051005,149.30882199949394)" fill="#000000"><path d="M6.6602 36.4844 l15.605 0 l0 3.5156 l-20.371 0 l0 -3.1445 l15.254 -20.977 l-15.215 0 l0 -3.4961 l19.863 0 l0 3.1836 z M52.60271484375 40 l-2.3047 -6.4453 l-12.344 0 l-2.3047 6.4453 l-4.043 0 l10.176 -27.617 l4.6875 0 l10.176 27.617 l-4.043 0 z M39.16551484375 30.1562 l9.9219 0 l-4.9609 -13.926 z M98.0184296875 40 l-3.8086 0 l-1.8164 -22.461 l-8.5352 22.461 l-2.3633 0 l-8.4766 -22.383 l-1.8555 22.383 l-3.8281 0 l2.1289 -27.617 l5.2539 0 l7.9492 20.879 l7.9883 -20.879 l5.2539 0 z M130.52430078125 12.383 l-9.082 14.453 l0 13.164 l-3.9258 0 l0 -13.145 l-9.1016 -14.473 l4.4141 0 l6.6406 10.957 l6.6602 -10.957 l4.3945 0 z"></path></g><g id="SvgjsG3079" featurekey="nameFeature-1" transform="matrix(0.7230510930341332,0,0,0.7230510930341332,-2.2734886782986257,259.3153694246187)" fill="#000000"><path d="M33.828 40 l-3.8086 0 l-1.8164 -22.461 l-8.5352 22.461 l-2.3633 0 l-8.4766 -22.383 l-1.8555 22.383 l-3.8281 0 l2.1289 -27.617 l5.2539 0 l7.9492 20.879 l7.9883 -20.879 l5.2539 0 z M65.51287109375 40 l-2.3047 -6.4453 l-12.344 0 l-2.3047 6.4453 l-4.043 0 l10.176 -27.617 l4.6875 0 l10.176 27.617 l-4.043 0 z M52.07567109375 30.1562 l9.9219 0 l-4.9609 -13.926 z M89.9525859375 40.37109 c-5.7617 0 -9.9805 -2.7539 -10.918 -7.4414 l3.9648 -0.9375 c0.625 3.2227 3.418 5.0781 7.0898 5.0781 c2.9492 0 5.7813 -1.2109 5.7227 -4.5313 c-0.039063 -3.2813 -3.5938 -4.1797 -7.3633 -5.2148 c-4.2773 -1.1719 -8.5547 -2.5195 -8.5547 -7.5977 c0 -5.1367 4.2383 -7.7148 9.2578 -7.7148 c4.8633 0 9.2383 2.0508 10.273 6.7969 l-3.7695 0.95703 c-0.68359 -3.0664 -3.2422 -4.4336 -6.3281 -4.4336 c-2.7734 0 -5.5273 1.2109 -5.5273 4.3555 c0 2.8516 3.0859 3.6914 6.582 4.6289 c4.3945 1.1914 9.4336 2.5586 9.4336 8.1055 c0 5.5859 -4.6875 7.9492 -9.8633 7.9492 z M121.32514453125 40.37109 c-5.7617 0 -9.9805 -2.7539 -10.918 -7.4414 l3.9648 -0.9375 c0.625 3.2227 3.418 5.0781 7.0898 5.0781 c2.9492 0 5.7813 -1.2109 5.7227 -4.5313 c-0.039063 -3.2813 -3.5938 -4.1797 -7.3633 -5.2148 c-4.2773 -1.1719 -8.5547 -2.5195 -8.5547 -7.5977 c0 -5.1367 4.2383 -7.7148 9.2578 -7.7148 c4.8633 0 9.2383 2.0508 10.273 6.7969 l-3.7695 0.95703 c-0.68359 -3.0664 -3.2422 -4.4336 -6.3281 -4.4336 c-2.7734 0 -5.5273 1.2109 -5.5273 4.3555 c0 2.8516 3.0859 3.6914 6.582 4.6289 c4.3945 1.1914 9.4336 2.5586 9.4336 8.1055 c0 5.5859 -4.6875 7.9492 -9.8633 7.9492 z M161.915703125 40 l-2.3047 -6.4453 l-12.344 0 l-2.3047 6.4453 l-4.043 0 l10.176 -27.617 l4.6875 0 l10.176 27.617 l-4.043 0 z M148.478503125 30.1562 l9.9219 0 l-4.9609 -13.926 z M189.46041796875 40.37109 c-7.7344 0 -13.672 -5.293 -13.672 -14.102 c0 -8.8867 5.9766 -14.258 13.809 -14.258 c5.0781 0 9.4336 2.2266 11.816 6.4453 l-3.4375 1.8359 c-1.7383 -3.2422 -4.8438 -4.7461 -8.3789 -4.7461 c-5.5859 0 -9.9023 3.7891 -9.9023 10.645 c0 6.7578 4.2188 10.684 10.039 10.684 c4.6875 0 8.3594 -2.6367 9.0039 -7.8711 l-9.0234 0 l0 -3.2422 l12.793 0 l0 14.238 l-3.1641 0 l0 -4.9609 c-1.8164 3.3789 -5.2344 5.332 -9.8828 5.332 z M231.0676328125 15.879000000000001 l-11.055 0 l0 8.5938 l9.7461 0 l0 3.4766 l-9.7461 0 l0 8.5352 l11.055 0 l0 3.5156 l-15.02 0 l0 -27.617 l15.02 0 l0 3.4961 z M278.85125 40 l-2.3047 -6.4453 l-12.344 0 l-2.3047 6.4453 l-4.043 0 l10.176 -27.617 l4.6875 0 l10.176 27.617 l-4.043 0 z M265.41405 30.1562 l9.9219 0 l-4.9609 -13.926 z M313.25196484375 12.383 l3.8672 0 l0 27.617 l-4.1992 0 l-14.434 -21.914 l0 21.914 l-3.8477 0 l0 -27.617 l4.1602 0 l14.453 21.816 l0 -21.816 z M331.9872859375 40 l0 -27.617 l9.1016 0 c8.4961 0 12.813 5.7031 12.813 13.789 c0 8.1445 -4.3164 13.828 -12.813 13.828 l-9.1016 0 z M335.8739859375 36.4844 l5.0586 0 c6.0352 0 8.9063 -4.0039 8.9063 -10.313 c0 -6.2695 -2.8711 -10.293 -8.9063 -10.293 l-5.0586 0 l0 20.605 z M388.697234375 40 l-7.793 -27.617 l4.043 0 l6.3672 22.461 l6.7578 -22.461 l3.3984 0 l6.7578 22.461 l6.3867 -22.461 l4.0234 0 l-7.793 27.617 l-4.668 0 l-6.4063 -20.547 l-6.4063 20.547 l-4.668 0 z M448.46794921875 40 l-2.3047 -6.4453 l-12.344 0 l-2.3047 6.4453 l-4.043 0 l10.176 -27.617 l4.6875 0 l10.176 27.617 l-4.043 0 z M435.03074921875 30.1562 l9.9219 0 l-4.9609 -13.926 z M461.0712640625 40 l10.762 -14.414 l-10.293 -13.203 l4.707 0 l7.9102 10.43 l7.8711 -10.43 l4.7266 0 l-10.313 13.203 l10.762 14.414 l-4.9219 0 l-8.125 -11.387 l-8.1445 11.387 l-4.9414 0 z"></path></g></svg>